<svg width="19" height="14" viewBox="0 0 19 14" fill="none" xmlns="http://www.w3.org/2000/svg">
<path d="M16.4706 0.4118C15.5565 0.1235 14.5518 0 13.5882 0C11.9823 0 10.2529 0.3294 9.0588 1.2353C7.8647 0.3294 6.1353 0 4.5294 0C2.9235 0 1.1941 0.3294 0 1.2353V13.3C0 13.5059 0.2059 13.7118 0.4118 13.7118C0.4941 13.7118 0.5353 13.6706 0.6176 13.6706C1.7294 13.1353 3.3353 12.7647 4.5294 12.7647C6.1353 12.7647 7.8647 13.0941 9.0588 14C10.1706 13.3 12.1882 12.7647 13.5882 12.7647C14.947 12.7647 16.347 13.0118 17.5 13.6294C17.5823 13.6706 17.6235 13.6706 17.7059 13.6706C17.9118 13.6706 18.1176 13.4647 18.1176 13.2588V1.2353C17.6235 0.8647 17.0882 0.6176 16.4706 0.4118ZM16.4706 11.5294C15.5647 11.2412 14.5765 11.1176 13.5882 11.1176C12.1882 11.1176 10.1706 11.6529 9.0588 12.3529V2.8824C10.1706 2.1824 12.1882 1.6471 13.5882 1.6471C14.5765 1.6471 15.5647 1.7706 16.4706 2.0588V11.5294Z" fill="#A8A8A8"/>
</svg>
