<svg width="25" height="24" viewBox="0 0 25 24" fill="none" xmlns="http://www.w3.org/2000/svg">
<path d="M12.48 20C16.8983 20 20.48 18.433 20.48 16.5C20.48 14.567 16.8983 13 12.48 13C8.0617 13 4.47998 14.567 4.47998 16.5C4.47998 18.433 8.0617 20 12.48 20Z" stroke="#E5E5EA" stroke-width="1.6"/>
<path d="M12.48 10C12.8739 10 13.2641 9.9224 13.628 9.77164C13.992 9.62087 14.3227 9.3999 14.6013 9.12132C14.8799 8.84274 15.1009 8.51203 15.2516 8.14805C15.4024 7.78407 15.48 7.39397 15.48 7C15.48 6.60603 15.4024 6.21593 15.2516 5.85195C15.1009 5.48797 14.8799 5.15726 14.6013 4.87868C14.3227 4.6001 13.992 4.37913 13.628 4.22836C13.2641 4.0776 12.8739 4 12.48 4C11.6843 4 10.9213 4.31607 10.3587 4.87868C9.79605 5.44129 9.47998 6.20435 9.47998 7C9.47998 7.79565 9.79605 8.55871 10.3587 9.12132C10.9213 9.68393 11.6843 10 12.48 10Z" stroke="#E5E5EA" stroke-width="1.6" stroke-linecap="round" stroke-linejoin="round"/>
</svg>
