<svg width="27" height="26" viewBox="0 0 27 26" fill="none" xmlns="http://www.w3.org/2000/svg">
<g clip-path="url(#clip0_54_1159)">
<g clip-path="url(#clip1_54_1159)">
<g clip-path="url(#clip2_54_1159)">
<path d="M26.5 13C26.5 5.8203 20.6797 0 13.5 0C6.3203 0 0.5 5.8203 0.5 13C0.5 20.1797 6.3203 26 13.5 26C20.6797 26 26.5 20.1797 26.5 13Z" fill="#0098EA"/>
<path fill-rule="evenodd" clip-rule="evenodd" d="M9.93107 7.64844H17.0681C17.5263 7.64844 17.9158 7.64844 18.2234 7.67715C18.5338 7.70531 18.8724 7.76923 19.1589 7.9794C19.3535 8.12201 19.5158 8.30419 19.635 8.51396C19.7542 8.72372 19.8277 8.95634 19.8506 9.19652C19.8847 9.55023 19.7666 9.8736 19.6323 10.1553C19.4991 10.4337 19.3003 10.7684 19.0652 11.1628L14.0651 19.5635C14.0067 19.6615 13.9239 19.7426 13.8248 19.799C13.7257 19.8553 13.6136 19.8849 13.4996 19.8849C13.3855 19.8849 13.2735 19.8553 13.1743 19.799C13.0752 19.7426 12.9924 19.6615 12.9341 19.5635L7.93394 11.1622C7.69886 10.7684 7.50007 10.4337 7.36682 10.1547C7.23248 9.8736 7.1144 9.55023 7.14852 9.19598C7.17154 8.95589 7.24506 8.72338 7.36427 8.51371C7.48348 8.30404 7.64568 8.12196 7.84023 7.9794C8.12732 7.76977 8.46532 7.70531 8.77569 7.67715C9.08336 7.64898 9.47282 7.64898 9.93107 7.64898V7.64844ZM8.61698 9.0416C8.57247 9.0744 8.53535 9.11618 8.50801 9.16423C8.48067 9.21229 8.46373 9.26555 8.45827 9.32056C8.45827 9.32598 8.46098 9.39206 8.55469 9.58815C8.65815 9.8059 8.82552 10.0881 9.08011 10.516L12.8414 16.8351V8.96469H9.96248C9.46415 8.96469 9.13644 8.96523 8.89648 8.98744C8.67982 9.00748 8.62186 9.0389 8.61752 9.0416H8.61698ZM14.1577 8.96469V16.8351L17.919 10.516C18.1736 10.0881 18.341 9.8059 18.4444 9.58815C18.5387 9.39152 18.5409 9.32544 18.5409 9.32056C18.5354 9.26555 18.5185 9.21229 18.4911 9.16423C18.4638 9.11618 18.4267 9.0744 18.3821 9.0416C18.3778 9.0389 18.3199 9.00694 18.1032 8.98744C17.8627 8.96577 17.535 8.96469 17.0366 8.96469H14.1577Z" fill="white"/>
</g>
</g>
</g>
<rect x="1" y="0.5" width="25" height="25" rx="12.5" stroke="white" stroke-opacity="0.1"/>
<defs>
<clipPath id="clip0_54_1159">
<rect x="0.5" width="26" height="26" rx="13" fill="white"/>
</clipPath>
<clipPath id="clip1_54_1159">
<rect width="26" height="26" fill="white" transform="translate(0.5)"/>
</clipPath>
<clipPath id="clip2_54_1159">
<rect width="26" height="26" fill="white" transform="translate(0.5)"/>
</clipPath>
</defs>
</svg>
