<svg width="20" height="21" viewBox="0 0 20 21" fill="none" xmlns="http://www.w3.org/2000/svg">
<path d="M7.49935 10.5H12.4993M7.49935 13.8333H12.4993M14.166 18H5.83268C5.39065 18 4.96673 17.8244 4.65417 17.5118C4.34161 17.1993 4.16602 16.7754 4.16602 16.3333V4.66667C4.16602 4.22464 4.34161 3.80072 4.65417 3.48816C4.96673 3.17559 5.39065 3 5.83268 3H10.4877C10.7087 3.00005 10.9206 3.08788 11.0768 3.24417L15.5885 7.75583C15.7448 7.91208 15.8326 8.124 15.8327 8.345V16.3333C15.8327 16.7754 15.6571 17.1993 15.3445 17.5118C15.032 17.8244 14.608 18 14.166 18Z" stroke="#EEEFEF" stroke-width="1.66667" stroke-linecap="round" stroke-linejoin="round"/>
</svg>
