<svg width="24" height="24" viewBox="0 0 24 24" fill="none" xmlns="http://www.w3.org/2000/svg">
<path d="M18 20H7C6.20435 20 5.44129 19.6839 4.87868 19.1213C4.31607 18.5587 4 17.7956 4 17V7C4 6.20435 4.31607 5.44129 4.87868 4.87868C5.44129 4.31607 6.20435 4 7 4H12.172C12.9676 4 13.7307 4.31607 14.2933 4.87868C14.8559 5.44129 15.172 6.20435 15.172 7V12M18 20C17.25 20 16.5307 19.7021 16.0003 19.1717C15.4699 18.6413 15.172 17.922 15.172 17.172V12M18 20C18.5304 20 19.0391 19.7893 19.4142 19.4142C19.7893 19.0391 20 18.5304 20 18V12H15.172M7 9H12M7 12H10" stroke="#E5E5EA" stroke-width="1.6" stroke-linecap="round" stroke-linejoin="round"/>
</svg>
