<svg width="25" height="24" viewBox="0 0 25 24" fill="none" xmlns="http://www.w3.org/2000/svg">
<path d="M7.97314 4H7.92614C7.13049 4 6.36743 4.31607 5.80482 4.87868C5.24221 5.44129 4.92614 6.20435 4.92614 7V10.52C4.92602 10.6258 4.90351 10.7305 4.86008 10.827C4.81665 10.9235 4.75328 11.0097 4.67414 11.08L3.64014 12L4.67414 12.92C4.75328 12.9903 4.81665 13.0765 4.86008 13.173C4.90351 13.2695 4.92602 13.3742 4.92614 13.48V17C4.92614 17.7956 5.24221 18.5587 5.80482 19.1213C6.36743 19.6839 7.13049 20 7.92614 20H7.97314M17.6391 4H17.6861C18.4818 4 19.2448 4.31607 19.8075 4.87868C20.3701 5.44129 20.6861 6.20435 20.6861 7V10.52C20.6862 10.6258 20.7088 10.7305 20.7522 10.827C20.7956 10.9235 20.859 11.0097 20.9381 11.08L21.9721 12L20.9381 12.92C20.859 12.9903 20.7956 13.0765 20.7522 13.173C20.7088 13.2695 20.6862 13.3742 20.6861 13.48V17C20.6861 17.7956 20.3701 18.5587 19.8075 19.1213C19.2448 19.6839 18.4818 20 17.6861 20H17.6401" stroke="#E5E5EA" stroke-width="1.6" stroke-linecap="round" stroke-linejoin="round"/>
<path d="M10.3901 16.25C10.3901 16.5815 10.2584 16.8995 10.024 17.1339C9.7896 17.3683 9.47166 17.5 9.14014 17.5C8.80862 17.5 8.49067 17.3683 8.25625 17.1339C8.02183 16.8995 7.89014 16.5815 7.89014 16.25C7.89014 15.9185 8.02183 15.6005 8.25625 15.3661C8.49067 15.1317 8.80862 15 9.14014 15C9.47166 15 9.7896 15.1317 10.024 15.3661C10.2584 15.6005 10.3901 15.9185 10.3901 16.25ZM13.8901 16.25C13.8901 16.5815 13.7584 16.8995 13.524 17.1339C13.2896 17.3683 12.9717 17.5 12.6401 17.5C12.3086 17.5 11.9907 17.3683 11.7563 17.1339C11.5218 16.8995 11.3901 16.5815 11.3901 16.25C11.3901 15.9185 11.5218 15.6005 11.7563 15.3661C11.9907 15.1317 12.3086 15 12.6401 15C12.9717 15 13.2896 15.1317 13.524 15.3661C13.7584 15.6005 13.8901 15.9185 13.8901 16.25ZM17.3901 16.25C17.3901 16.5815 17.2584 16.8995 17.024 17.1339C16.7896 17.3683 16.4717 17.5 16.1401 17.5C15.8086 17.5 15.4907 17.3683 15.2563 17.1339C15.0218 16.8995 14.8901 16.5815 14.8901 16.25C14.8901 15.9185 15.0218 15.6005 15.2563 15.3661C15.4907 15.1317 15.8086 15 16.1401 15C16.4717 15 16.7896 15.1317 17.024 15.3661C17.2584 15.6005 17.3901 15.9185 17.3901 16.25Z" fill="#E5E5EA"/>
</svg>
