<svg width="19" height="18" viewBox="0 0 19 18" fill="none" xmlns="http://www.w3.org/2000/svg">
<g clip-path="url(#clip0_54_1167)">
<path d="M18.5 9.00001C18.5 4.02944 14.4706 0 9.50001 0C4.52943 0 0.5 4.02944 0.5 9.00001C0.5 13.4922 3.79117 17.2155 8.09375 17.8907V11.6016H5.8086V9.00001H8.09375V7.0172C8.09375 4.76156 9.43738 3.51563 11.4932 3.51563C12.4779 3.51563 13.5078 3.69141 13.5078 3.69141V5.90625H12.3729C11.2549 5.90625 10.9063 6.60001 10.9063 7.31176V9.00001H13.4024L13.0033 11.6016H10.9062V17.8907C15.2088 17.2155 18.5 13.4922 18.5 9.00001Z" fill="#606069"/>
</g>
<defs>
<clipPath id="clip0_54_1167">
<rect width="18" height="18" fill="white" transform="translate(0.5)"/>
</clipPath>
</defs>
</svg>
