<svg width="26" height="32" viewBox="0 0 26 32" fill="none" xmlns="http://www.w3.org/2000/svg">
<g clip-path="url(#clip0_54_2717)">
<path d="M24.3958 16.9137C22.0119 10.7185 13.524 10.3844 15.5738 1.38019C15.7257 0.712078 15.012 0.195814 14.435 0.545051C8.9231 3.79449 4.96 10.3085 8.28536 18.842C8.55867 19.5406 7.73873 20.1935 7.14654 19.738C4.39819 17.6577 4.10969 14.6664 4.35264 12.5254C4.44374 11.7359 3.41121 11.3562 2.97087 12.0092C1.93834 13.5883 0.890625 16.1393 0.890625 19.9809C1.46763 28.4841 8.64978 31.0958 11.2311 31.4298C14.9209 31.9006 18.9143 31.2172 21.7842 28.5904C24.9425 25.6598 26.0965 20.9831 24.3958 16.9137ZM10.3049 24.5514C12.4914 24.0199 13.615 22.4407 13.9187 21.0438C14.4198 18.8725 12.461 16.7467 13.782 13.315C14.2831 16.1545 18.7473 17.931 18.7473 21.0286C18.8688 24.8702 14.7083 28.1652 10.3049 24.5514Z" fill="#88ACDB"/>
</g>
<defs>
<clipPath id="clip0_54_2717">
<rect width="25.0811" height="32" fill="white" transform="translate(0.458984)"/>
</clipPath>
</defs>
</svg>
