<svg width="25" height="24" viewBox="0 0 25 24" fill="none" xmlns="http://www.w3.org/2000/svg">
<path d="M4.08975 10.1448C3.92855 10.0642 3.79347 9.93958 3.70011 9.7854C3.60675 9.63122 3.55892 9.45377 3.56217 9.27356C3.56541 9.09334 3.61958 8.91773 3.71843 8.76701C3.81728 8.61629 3.95676 8.49661 4.12075 8.42183L12.5227 4.60283C12.6496 4.54532 12.7874 4.51624 12.9266 4.51763C13.0659 4.51901 13.2031 4.55082 13.3288 4.61083L21.3298 8.42883C21.4896 8.50517 21.6251 8.62448 21.721 8.77341C21.817 8.92234 21.8696 9.09502 21.873 9.27214C21.8765 9.44927 21.8305 9.62385 21.7404 9.77638C21.6503 9.92891 21.5195 10.0534 21.3627 10.1358L13.3608 14.3358C13.2269 14.4063 13.0782 14.4439 12.927 14.4457C12.7757 14.4474 12.6262 14.4132 12.4908 14.3458L4.08975 10.1438V10.1448Z" stroke="#E5E5EA" stroke-width="1.6" stroke-linejoin="round"/>
<path d="M5.7998 11V16.136C5.7998 17.718 8.9338 19 12.7998 19C16.6658 19 19.7998 17.718 19.7998 16.136V11" stroke="#E5E5EA" stroke-width="1.6" stroke-linecap="round"/>
<path d="M21.874 9.44531V14.9993" stroke="#E5E5EA" stroke-width="1.6" stroke-linecap="round" stroke-linejoin="round"/>
</svg>
