<svg width="19" height="18" viewBox="0 0 19 18" fill="none" xmlns="http://www.w3.org/2000/svg">
<g clip-path="url(#clip0_54_1169)">
<path fill-rule="evenodd" clip-rule="evenodd" d="M9.50001 7.60184e-06C8.31788 -0.00153117 7.1471 0.230555 6.05495 0.682927C4.96281 1.1353 3.97082 1.79904 3.13601 2.63601C2.29904 3.47082 1.6353 4.46281 1.18293 5.55495C0.730555 6.6471 0.498469 7.81788 0.500008 9.00001C0.498469 10.1821 0.730555 11.3529 1.18293 12.4451C1.6353 13.5372 2.29904 14.5292 3.13601 15.364C3.97082 16.201 4.96281 16.8647 6.05495 17.3171C7.1471 17.7695 8.31788 18.0015 9.50001 18C10.6821 18.0015 11.8529 17.7695 12.9451 17.3171C14.0372 16.8647 15.0292 16.201 15.864 15.364C16.701 14.5292 17.3647 13.5372 17.8171 12.4451C18.2695 11.3529 18.5015 10.1821 18.5 9.00001C18.5015 7.81788 18.2695 6.6471 17.8171 5.55495C17.3647 4.46281 16.701 3.47082 15.864 2.63601C15.0292 1.79904 14.0372 1.1353 12.9451 0.682927C11.8529 0.230555 10.6821 -0.00153117 9.50001 7.60184e-06ZM7.04301 12.852V7.04801H5.11401V12.852H7.04301ZM6.08001 6.25501C6.75201 6.25501 7.17101 5.81001 7.17101 5.25301C7.15801 4.68301 6.75201 4.25001 6.09201 4.25001C5.43201 4.25001 5.00101 4.68301 5.00101 5.25301C5.00101 5.81001 5.42001 6.25501 6.06701 6.25501H6.08001ZM8.11001 12.852H10.04V9.61001C10.04 9.43601 10.052 9.26301 10.103 9.13901C10.243 8.79201 10.56 8.43301 11.093 8.43301C11.791 8.43301 12.07 8.96601 12.07 9.74601V12.851H13.999V9.52401C13.999 7.74101 13.047 6.91201 11.778 6.91201C10.738 6.91201 10.28 7.49301 10.027 7.89001H10.04V7.04801H8.11001C8.13601 7.59301 8.11001 12.852 8.11001 12.852Z" fill="#606069"/>
</g>
<defs>
<clipPath id="clip0_54_1169">
<rect width="18" height="18" fill="white" transform="translate(0.5)"/>
</clipPath>
</defs>
</svg>
