<svg width="25" height="24" viewBox="0 0 25 24" fill="none" xmlns="http://www.w3.org/2000/svg">
<path fill-rule="evenodd" clip-rule="evenodd" d="M17.2121 6H7.66771C6.13955 6 5.57275 6.1273 5.01069 6.4279C4.518 6.69139 4.13133 7.07806 3.86784 7.57075C3.56724 8.13281 3.43994 8.69961 3.43994 10.2278V15.7722C3.43994 17.3004 3.56724 17.8672 3.86784 18.4293C4.13133 18.9219 4.518 19.3086 5.01069 19.5721C5.57275 19.8727 6.13955 20 7.66771 20H17.2121C18.7403 20 19.3071 19.8727 19.8692 19.5721C20.3618 19.3086 20.7485 18.9219 21.012 18.4293C21.3126 17.8672 21.4399 17.3004 21.4399 15.7722V10.2278C21.4399 8.69961 21.3126 8.13281 21.012 7.57075C20.7485 7.07806 20.3618 6.69139 19.8692 6.4279C19.3071 6.1273 18.7403 6 17.2121 6Z" stroke="#E5E5EA" stroke-width="1.6"/>
<path d="M8.43994 6V5.31491C8.43994 4.70097 8.67232 4.11212 9.08586 3.67799C9.49941 3.24387 10.0604 3 10.6452 3H14.2346C14.8195 3 15.3804 3.24387 15.794 3.67799C16.2075 4.11212 16.4399 4.70097 16.4399 5.31491V6" stroke="#E5E5EA" stroke-width="1.6" stroke-linecap="round" stroke-linejoin="round"/>
<path fill-rule="evenodd" clip-rule="evenodd" d="M9.25499 9.76819C9.27578 9.75632 9.29983 9.74989 9.32467 9.75L9.32804 9.75001H11.6899V14.2149L9.2104 9.94503L9.20713 9.93945C9.19582 9.92035 9.19004 9.89907 9.18994 9.87775C9.18984 9.85637 9.19542 9.8351 9.2065 9.81597C9.2176 9.79684 9.23413 9.7801 9.25499 9.76819ZM11.7887 17.3721L7.91462 10.7007C7.76897 10.4534 7.69131 10.172 7.68996 9.8848C7.6886 9.5964 7.76422 9.31307 7.9088 9.06367C8.05338 8.81427 8.26153 8.60813 8.51127 8.46555C8.76053 8.32324 9.04277 8.24906 9.32947 8.25001H12.4399H15.5478C15.8345 8.24906 16.1169 8.32302 16.3664 8.46507C16.6168 8.60758 16.8252 8.81365 16.9701 9.06284C17.1149 9.31194 17.1912 9.5955 17.1899 9.88481C17.1885 10.1723 17.1106 10.4538 16.9647 10.701L13.0911 17.3721C13.0418 17.4584 12.9755 17.5345 12.8961 17.5953C12.8286 17.6472 12.7515 17.688 12.6672 17.7147C12.6071 17.7339 12.5445 17.7455 12.4808 17.7489C12.4497 17.7507 12.4187 17.7504 12.388 17.7483C12.241 17.738 12.1002 17.6846 11.9837 17.5953C11.9161 17.5436 11.8566 17.4797 11.8088 17.4053C11.8018 17.3944 11.7951 17.3833 11.7887 17.3721ZM13.1899 14.2147L15.6691 9.94506L15.6728 9.93859C15.6841 9.91959 15.6898 9.89862 15.6899 9.87774C15.69 9.85726 15.6846 9.83623 15.6733 9.81681C15.6621 9.79747 15.6454 9.78065 15.6244 9.76866C15.6031 9.75654 15.5783 9.74989 15.5525 9.75L15.5492 9.75002L13.1899 9.75001V14.2147Z" fill="#E5E5EA"/>
</svg>
