<svg width="16" height="14" viewBox="0 0 16 14" fill="none" xmlns="http://www.w3.org/2000/svg">
<path d="M14.4429 0.00828668C14.1844 -0.0191133 13.9034 0.0211871 13.621 0.132887C13.271 0.270487 7.7864 2.57769 2.6738 4.72989L0.984401 5.44089C0.330301 5.70609 0 6.13749 0 6.71849C0 7.12529 0.172201 7.67709 0.993501 8.00219L3.8451 9.14469C4.0916 9.88439 4.6643 11.6019 4.8082 12.0585C4.8938 12.3292 5.1099 13.0111 5.6559 13.1705C5.7679 13.2086 5.8848 13.2283 6.0038 13.2283C6.3484 13.2283 6.5965 13.0679 6.7178 12.9745L8.5302 11.4417L10.7315 13.4774C10.8163 13.5637 11.2651 14 11.8679 14C12.62 14 13.1906 13.3739 13.3096 12.7679C13.3741 12.4358 15.4972 1.77969 15.4972 1.77969C15.6878 0.924787 15.3451 0.481387 15.125 0.292387C14.9364 0.130987 14.7014 0.0356867 14.4429 0.00828668ZM13.9279 1.68849C13.6347 3.15859 12.0361 11.1829 11.7934 12.3395L8.5758 9.36339L6.3927 11.2123L6.9974 8.84689C6.9974 8.84689 11.1685 4.62479 11.4197 4.37899C11.6219 4.18219 11.6643 4.11319 11.6643 4.04479C11.6643 3.95379 11.6175 3.88829 11.5093 3.88829C11.4121 3.88829 11.2801 3.98149 11.2101 4.02499C10.3207 4.57949 6.5339 6.73689 4.67 7.79719L1.9658 6.71699L3.2784 6.16559C6.6223 4.75769 12.5776 2.25009 13.9279 1.68849Z" fill="#A8A8A8"/>
</svg>
