<svg width="19" height="18" viewBox="0 0 19 18" fill="none" xmlns="http://www.w3.org/2000/svg">
<g clip-path="url(#clip0_54_1165)">
<path fill-rule="evenodd" clip-rule="evenodd" d="M3.13601 2.63601C3.97082 1.79904 4.96281 1.1353 6.05495 0.682927C7.1471 0.230555 8.31788 -0.00153117 9.50001 7.60184e-06C10.6821 -0.00153117 11.8529 0.230555 12.9451 0.682927C14.0372 1.1353 15.0292 1.79904 15.864 2.63601C16.701 3.47082 17.3647 4.46281 17.8171 5.55495C18.2695 6.6471 18.5015 7.81788 18.5 9.00001C18.5015 10.1821 18.2695 11.3529 17.8171 12.4451C17.3647 13.5372 16.701 14.5292 15.864 15.364C15.0292 16.201 14.0372 16.8647 12.9451 17.3171C11.8529 17.7695 10.6821 18.0015 9.50001 18C8.31788 18.0015 7.1471 17.7695 6.05495 17.3171C4.96281 16.8647 3.97082 16.201 3.13601 15.364C2.29904 14.5292 1.6353 13.5372 1.18293 12.4451C0.730555 11.3529 0.498469 10.1821 0.500008 9.00001C0.498469 7.81788 0.730555 6.6471 1.18293 5.55495C1.6353 4.46281 2.29904 3.47082 3.13601 2.63601ZM13.492 7.29101V7.02901C13.8957 6.74116 14.2383 6.37612 14.5 5.95501C14.133 6.12501 13.74 6.23001 13.322 6.28301C13.741 6.02101 14.068 5.62801 14.225 5.14401C13.8198 5.38227 13.3772 5.5503 12.916 5.64101C12.7243 5.43785 12.4931 5.27615 12.2364 5.1659C11.9798 5.05565 11.7033 4.99919 11.424 5.00001C11.154 4.99948 10.8866 5.05228 10.6371 5.15538C10.3876 5.25848 10.1609 5.40984 9.97008 5.60079C9.77923 5.79173 9.62798 6.01849 9.525 6.26805C9.42202 6.5176 9.36935 6.78504 9.37001 7.05501C9.37001 7.21201 9.38301 7.38201 9.42201 7.52601C8.60636 7.48395 7.80862 7.27122 7.08033 6.90156C6.35205 6.53191 5.70943 6.01356 5.19401 5.38001C5.0146 5.69515 4.91986 6.05138 4.91901 6.41401C4.91901 7.13401 5.28501 7.76201 5.83501 8.12801C5.50835 8.11735 5.18919 8.02743 4.90501 7.86601V7.89301C4.90501 8.88701 5.61301 9.71201 6.55501 9.89501C6.25311 9.98517 5.93354 9.99891 5.62501 9.93501C5.75258 10.344 6.00621 10.7021 6.34962 10.9582C6.69304 11.2144 7.10864 11.3553 7.53701 11.361C6.67597 12.033 5.58486 12.3387 4.50001 12.212C5.41601 12.788 6.49001 13.128 7.65401 13.128C11.424 13.128 13.492 10 13.492 7.29101Z" fill="#606069"/>
</g>
<defs>
<clipPath id="clip0_54_1165">
<rect width="18" height="18" fill="white" transform="translate(0.5)"/>
</clipPath>
</defs>
</svg>
