<svg width="21" height="21" viewBox="0 0 21 21" fill="none" xmlns="http://www.w3.org/2000/svg">
<path d="M18.2305 10.5C18.2305 12.4891 17.4403 14.3968 16.0338 15.8033C14.6272 17.2098 12.7196 18 10.7305 18M18.2305 10.5C18.2305 8.51088 17.4403 6.60322 16.0338 5.1967C14.6272 3.79018 12.7196 3 10.7305 3M18.2305 10.5H3.23047M10.7305 18C8.74134 18 6.83369 17.2098 5.42717 15.8033C4.02064 14.3968 3.23047 12.4891 3.23047 10.5M10.7305 18C12.1113 18 13.2305 14.6417 13.2305 10.5C13.2305 6.35833 12.1113 3 10.7305 3M10.7305 18C9.34964 18 8.23047 14.6417 8.23047 10.5C8.23047 6.35833 9.34964 3 10.7305 3M10.7305 3C8.74134 3 6.83369 3.79018 5.42717 5.1967C4.02064 6.60322 3.23047 8.51088 3.23047 10.5" stroke="#EEEFEF" stroke-width="1.66667" stroke-linecap="round" stroke-linejoin="round"/>
</svg>
