<svg width="26" height="26" viewBox="0 0 26 26" fill="none" xmlns="http://www.w3.org/2000/svg">
<g clip-path="url(#clip0_1_2018)">
<g clip-path="url(#clip1_1_2018)">
<g clip-path="url(#clip2_1_2018)">
<path d="M26 13C26 5.8203 20.1797 0 13 0C5.8203 0 0 5.8203 0 13C0 20.1797 5.8203 26 13 26C20.1797 26 26 20.1797 26 13Z" fill="#0098EA"/>
<path fill-rule="evenodd" clip-rule="evenodd" d="M9.43155 7.64844H16.5686C17.0268 7.64844 17.4163 7.64844 17.7239 7.67715C18.0343 7.70531 18.3728 7.76923 18.6594 7.9794C18.854 8.12201 19.0162 8.30419 19.1355 8.51396C19.2547 8.72372 19.3282 8.95634 19.3511 9.19652C19.3852 9.55023 19.2671 9.8736 19.1328 10.1553C18.9996 10.4337 18.8008 10.7684 18.5657 11.1628L13.5656 19.5635C13.5072 19.6615 13.4244 19.7426 13.3253 19.799C13.2262 19.8553 13.1141 19.8849 13.0001 19.8849C12.886 19.8849 12.7739 19.8553 12.6748 19.799C12.5757 19.7426 12.4929 19.6615 12.4346 19.5635L7.43443 11.1622C7.19935 10.7684 7.00055 10.4337 6.8673 10.1547C6.73297 9.8736 6.61489 9.55023 6.64901 9.19598C6.67202 8.95589 6.74555 8.72338 6.86476 8.51371C6.98397 8.30404 7.14617 8.12196 7.34072 7.9794C7.6278 7.76977 7.9658 7.70531 8.27618 7.67715C8.58385 7.64898 8.9733 7.64898 9.43155 7.64898V7.64844ZM8.11747 9.0416C8.07296 9.0744 8.03584 9.11618 8.0085 9.16423C7.98116 9.21229 7.96421 9.26555 7.95876 9.32056C7.95876 9.32598 7.96147 9.39206 8.05518 9.58815C8.15864 9.8059 8.32601 10.0881 8.5806 10.516L12.3419 16.8351V8.96469H9.46297C8.96464 8.96469 8.63693 8.96523 8.39697 8.98744C8.1803 9.00748 8.12235 9.0389 8.11801 9.0416H8.11747ZM13.6582 8.96469V16.8351L17.4195 10.516C17.6741 10.0881 17.8415 9.8059 17.9449 9.58815C18.0392 9.39152 18.0413 9.32544 18.0413 9.32056C18.0359 9.26555 18.019 9.21229 17.9916 9.16423C17.9643 9.11618 17.9271 9.0744 17.8826 9.0416C17.8783 9.0389 17.8203 9.00694 17.6037 8.98744C17.3632 8.96577 17.0355 8.96469 16.5371 8.96469H13.6582Z" fill="white"/>
</g>
</g>
</g>
<rect x="0.5" y="0.5" width="25" height="25" rx="12.5" stroke="white" stroke-opacity="0.1"/>
<defs>
<clipPath id="clip0_1_2018">
<rect width="26" height="26" rx="13" fill="white"/>
</clipPath>
<clipPath id="clip1_1_2018">
<rect width="26" height="26" fill="white"/>
</clipPath>
<clipPath id="clip2_1_2018">
<rect width="26" height="26" fill="white"/>
</clipPath>
</defs>
</svg>
