<svg width="36" height="37" viewBox="0 0 36 37" fill="none" xmlns="http://www.w3.org/2000/svg">
<path d="M28.9052 8.49495C26.9102 7.56495 24.7502 6.88995 22.5002 6.49995C22.4804 6.49932 22.4608 6.50302 22.4427 6.51079C22.4245 6.51857 22.4083 6.53023 22.3952 6.54495C22.1252 7.03995 21.8102 7.68495 21.6002 8.17995C19.2137 7.81995 16.7867 7.81995 14.4002 8.17995C14.1902 7.66995 13.8752 7.03995 13.5902 6.54495C13.5752 6.51495 13.5302 6.49995 13.4852 6.49995C11.2352 6.88995 9.09018 7.56495 7.08018 8.49495C7.06518 8.49495 7.05018 8.50995 7.03518 8.52495C2.95518 14.6299 1.83018 20.5699 2.38518 26.4499C2.38518 26.4799 2.40018 26.5099 2.43018 26.5249C5.13018 28.5049 7.72518 29.7049 10.2902 30.4999C10.3352 30.5149 10.3802 30.4999 10.3952 30.4699C10.9952 29.6449 11.5352 28.7749 12.0002 27.8599C12.0302 27.7999 12.0002 27.7399 11.9402 27.7249C11.0852 27.3949 10.2752 27.0049 9.48018 26.5549C9.42018 26.5249 9.42018 26.4349 9.46518 26.3899C9.63018 26.2699 9.79518 26.1349 9.96018 26.0149C9.99018 25.9849 10.0352 25.9849 10.0652 25.9999C15.2252 28.3549 20.7902 28.3549 25.8902 25.9999C25.9202 25.9849 25.9652 25.9849 25.9952 26.0149C26.1602 26.1499 26.3252 26.2699 26.4902 26.4049C26.5502 26.4499 26.5502 26.5399 26.4752 26.5699C25.6952 27.0349 24.8702 27.4099 24.0152 27.7399C23.9552 27.7549 23.9402 27.8299 23.9552 27.8749C24.4352 28.7899 24.9752 29.6599 25.5602 30.4849C25.6052 30.4999 25.6502 30.5149 25.6952 30.4999C28.2752 29.7049 30.8702 28.5049 33.5702 26.5249C33.6002 26.5099 33.6152 26.4799 33.6152 26.4499C34.2752 19.6549 32.5202 13.7599 28.9652 8.52495C28.9502 8.50995 28.9352 8.49495 28.9052 8.49495ZM12.7802 22.8649C11.2352 22.8649 9.94518 21.4399 9.94518 19.6849C9.94518 17.9299 11.2052 16.5049 12.7802 16.5049C14.3702 16.5049 15.6302 17.9449 15.6152 19.6849C15.6152 21.4399 14.3552 22.8649 12.7802 22.8649ZM23.2352 22.8649C21.6902 22.8649 20.4002 21.4399 20.4002 19.6849C20.4002 17.9299 21.6602 16.5049 23.2352 16.5049C24.8252 16.5049 26.0852 17.9449 26.0702 19.6849C26.0702 21.4399 24.8252 22.8649 23.2352 22.8649Z" fill="white"/>
</svg>
