<svg width="19" height="19" viewBox="0 0 19 19" fill="none" xmlns="http://www.w3.org/2000/svg">
<path fill-rule="evenodd" clip-rule="evenodd" d="M9.50001 0.1399C8.31788 0.138361 7.1471 0.370447 6.05495 0.82282C4.96281 1.27519 3.97082 1.93893 3.13601 2.7759C2.29904 3.61071 1.6353 4.6027 1.18293 5.69485C0.730555 6.78699 0.498469 7.95777 0.500008 9.1399C0.498469 10.322 0.730555 11.4928 1.18293 12.585C1.6353 13.6771 2.29904 14.6691 3.13601 15.5039C3.97082 16.3409 4.96281 17.0046 6.05495 17.457C7.1471 17.9094 8.31788 18.1414 9.50001 18.1399C10.6821 18.1414 11.8529 17.9094 12.9451 17.457C14.0372 17.0046 15.0292 16.3409 15.864 15.5039C16.701 14.6691 17.3647 13.6771 17.8171 12.585C18.2695 11.4928 18.5015 10.322 18.5 9.1399C18.5015 7.95777 18.2695 6.78699 17.8171 5.69485C17.3647 4.6027 16.701 3.61071 15.864 2.7759C15.0292 1.93893 14.0372 1.27519 12.9451 0.82282C11.8529 0.370447 10.6821 0.138361 9.50001 0.1399ZM7.04301 12.9919V7.1879H5.11401V12.9919H7.04301ZM6.08001 6.3949C6.75201 6.3949 7.17101 5.9499 7.17101 5.3929C7.15801 4.8229 6.75201 4.3899 6.09201 4.3899C5.43201 4.3899 5.00101 4.8229 5.00101 5.3929C5.00101 5.9499 5.42001 6.3949 6.06701 6.3949H6.08001ZM8.11001 12.9919H10.04V9.7499C10.04 9.5759 10.052 9.4029 10.103 9.2789C10.243 8.9319 10.56 8.5729 11.093 8.5729C11.791 8.5729 12.07 9.1059 12.07 9.8859V12.9909H13.999V9.6639C13.999 7.8809 13.047 7.0519 11.778 7.0519C10.738 7.0519 10.28 7.6329 10.027 8.0299H10.04V7.1879H8.11001C8.13601 7.7329 8.11001 12.9919 8.11001 12.9919Z" fill="#606069"/>
</svg>
