<svg width="36" height="37" viewBox="0 0 36 37" fill="none" xmlns="http://www.w3.org/2000/svg">
<path d="M18 3.5C9.72 3.5 3 10.22 3 18.5C3 26.78 9.72 33.5 18 33.5C26.28 33.5 33 26.78 33 18.5C33 10.22 26.28 3.5 18 3.5ZM24.96 13.7C24.735 16.07 23.76 21.83 23.265 24.485C23.055 25.61 22.635 25.985 22.245 26.03C21.375 26.105 20.715 25.46 19.875 24.905C18.555 24.035 17.805 23.495 16.53 22.655C15.045 21.68 16.005 21.14 16.86 20.27C17.085 20.045 20.925 16.55 21 16.235C21.0104 16.1873 21.009 16.1378 20.996 16.0907C20.9829 16.0437 20.9585 16.0005 20.925 15.965C20.835 15.89 20.715 15.92 20.61 15.935C20.475 15.965 18.375 17.36 14.28 20.12C13.68 20.525 13.14 20.735 12.66 20.72C12.12 20.705 11.1 20.42 10.335 20.165C9.39 19.865 8.655 19.7 8.715 19.175C8.745 18.905 9.12 18.635 9.825 18.35C14.205 16.445 17.115 15.185 18.57 14.585C22.74 12.845 23.595 12.545 24.165 12.545C24.285 12.545 24.57 12.575 24.75 12.725C24.9 12.845 24.945 13.01 24.96 13.13C24.945 13.22 24.975 13.49 24.96 13.7Z" fill="white"/>
</svg>
