<svg width="19" height="19" viewBox="0 0 19 19" fill="none" xmlns="http://www.w3.org/2000/svg">
<path fill-rule="evenodd" clip-rule="evenodd" d="M3.13601 2.7759C3.97082 1.93893 4.96281 1.27519 6.05495 0.82282C7.1471 0.370447 8.31788 0.138361 9.50001 0.1399C10.6821 0.138361 11.8529 0.370447 12.9451 0.82282C14.0372 1.27519 15.0292 1.93893 15.864 2.7759C16.701 3.61071 17.3647 4.6027 17.8171 5.69485C18.2695 6.78699 18.5015 7.95777 18.5 9.1399C18.5015 10.322 18.2695 11.4928 17.8171 12.585C17.3647 13.6771 16.701 14.6691 15.864 15.5039C15.0292 16.3409 14.0372 17.0046 12.9451 17.457C11.8529 17.9094 10.6821 18.1414 9.50001 18.1399C8.31788 18.1414 7.1471 17.9094 6.05495 17.457C4.96281 17.0046 3.97082 16.3409 3.13601 15.5039C2.29904 14.6691 1.6353 13.6771 1.18293 12.585C0.730555 11.4928 0.498469 10.322 0.500008 9.1399C0.498469 7.95777 0.730555 6.78699 1.18293 5.69485C1.6353 4.6027 2.29904 3.61071 3.13601 2.7759ZM13.492 7.4309V7.1689C13.8957 6.88106 14.2383 6.51602 14.5 6.0949C14.133 6.2649 13.74 6.3699 13.322 6.4229C13.741 6.1609 14.068 5.7679 14.225 5.2839C13.8198 5.52216 13.3772 5.6902 12.916 5.7809C12.7243 5.57774 12.4931 5.41605 12.2364 5.30579C11.9798 5.19554 11.7033 5.13908 11.424 5.1399C11.154 5.13937 10.8866 5.19217 10.6371 5.29527C10.3876 5.39837 10.1609 5.54974 9.97008 5.74068C9.77923 5.93162 9.62798 6.15838 9.525 6.40794C9.42202 6.65749 9.36935 6.92493 9.37001 7.1949C9.37001 7.3519 9.38301 7.5219 9.42201 7.6659C8.60636 7.62384 7.80862 7.41111 7.08033 7.04146C6.35205 6.6718 5.70943 6.15345 5.19401 5.5199C5.0146 5.83504 4.91986 6.19127 4.91901 6.5539C4.91901 7.2739 5.28501 7.9019 5.83501 8.2679C5.50835 8.25724 5.18919 8.16733 4.90501 8.0059V8.0329C4.90501 9.0269 5.61301 9.8519 6.55501 10.0349C6.25311 10.1251 5.93354 10.1388 5.62501 10.0749C5.75258 10.4839 6.00621 10.842 6.34962 11.0981C6.69304 11.3543 7.10864 11.4952 7.53701 11.5009C6.67597 12.1729 5.58486 12.4786 4.50001 12.3519C5.41601 12.9279 6.49001 13.2679 7.65401 13.2679C11.424 13.2679 13.492 10.1399 13.492 7.4309Z" fill="#606069"/>
</svg>
