<svg width="36" height="37" viewBox="0 0 36 37" fill="none" xmlns="http://www.w3.org/2000/svg">
<path d="M23.0249 8.82505C21.8852 8.82485 20.7908 9.27202 19.9773 10.0704C19.1638 10.8687 18.6962 11.9545 18.6749 13.094L18.6329 15.4565C18.6307 15.5835 18.6016 15.7086 18.5476 15.8235C18.4935 15.9384 18.4158 16.0406 18.3195 16.1234C18.2231 16.2061 18.1104 16.2675 17.9886 16.3036C17.8668 16.3396 17.7388 16.3495 17.6129 16.3326L15.2699 16.0131C12.1904 15.5931 9.23845 14.1755 6.40495 11.816C5.50945 16.781 7.25994 20.2206 11.4794 22.8741L14.0999 24.521C14.2242 24.5992 14.3275 24.7066 14.4008 24.8339C14.474 24.9612 14.515 25.1044 14.5202 25.2511C14.5254 25.3979 14.4946 25.5437 14.4305 25.6758C14.3664 25.8079 14.2709 25.9223 14.1524 26.0091L11.7644 27.7551C13.1849 27.845 14.5334 27.7821 15.6524 27.5601C22.7294 26.1471 27.4349 20.822 27.4349 12.038C27.4349 11.321 25.9154 8.82505 23.0249 8.82505ZM15.6749 13.04C15.7011 11.5941 16.1533 10.1881 16.9748 8.99788C17.7963 7.80771 18.9506 6.88633 20.2933 6.3491C21.636 5.81187 23.1073 5.68267 24.5231 5.97767C25.9388 6.27267 27.2361 6.97877 28.2524 8.00755C29.3189 8.00005 30.2264 8.27005 32.2544 7.03855C31.7534 9.49855 31.5044 10.568 30.4349 12.0365C30.4349 23.498 23.3894 29.0735 16.2389 30.5C11.3384 31.4781 4.20895 29.8716 2.16895 27.7371C3.20845 27.6576 7.43845 27.203 9.88345 25.412C7.81345 24.047 -0.418555 19.2021 4.99195 6.17905C7.53145 9.14455 10.1069 11.162 12.7169 12.2345C14.4524 12.947 14.8799 12.932 15.6764 13.0415L15.6749 13.04Z" fill="white"/>
</svg>
